<?xml version="1.0" encoding="UTF-8"?><svg width="375" height="788" fill="none" xmlns="http://www.w3.org/2000/svg"><path d="M40 517a16 16 0 1 0 0 32 16 16 0 0 0 0-32Zm0 30a14 14 0 1 1 0-28 14 14 0 0 1 0 28Z" fill="#1652F0"/><path d="M40.3 532c-2-.4-2.4-.8-2.4-1.8 0-.8.7-1.4 2-1.4 1.2 0 1.8.4 2.1 1.3a.5.5 0 0 0 .5.3h1a.5.5 0 0 0 .4-.5c-.3-1.5-1.3-2.4-2.9-2.6v-1.6a.5.5 0 0 0-.4-.5h-1a.5.5 0 0 0-.5.5v1.5c-2 .3-3.2 1.6-3.2 3.2 0 2.1 1.3 3 4 3.3 1.9.3 2.4.7 2.4 1.8 0 1-.9 1.7-2.1 1.7-1.7 0-2.3-.7-2.5-1.7a.5.5 0 0 0-.5-.4h-1a.5.5 0 0 0-.4.2.5.5 0 0 0-.1.4c.3 1.6 1.3 2.8 3.4 3v1.6a.5.5 0 0 0 .5.5h1a.5.5 0 0 0 .4-.5v-1.6c2-.3 3.3-1.7 3.3-3.4 0-2.3-1.4-3-4-3.4v.1Z" fill="#1652F0"/><path d="M40 621a16 16 0 1 0 0-32 16 16 0 0 0 0 32Z" fill="#2775CA"/><path d="M44.4 607.5c0-2.3-1.4-3-4.2-3.5-2-.2-2.4-.7-2.4-1.7s.7-1.5 2-1.5c1.2 0 1.9.4 2.2 1.4a.5.5 0 0 0 .4.3h1.3l.2-.1a.5.5 0 0 0 0-.4c-.3-1.5-1.3-2.4-2.9-2.7v-1.6a.5.5 0 0 0-.5-.5h-1a.5.5 0 0 0-.5.5v1.5c-2 .3-3.3 1.6-3.3 3.3 0 2.2 1.4 3 4.2 3.4 1.9.3 2.4.7 2.4 1.8s-1 1.8-2.2 1.8c-1.8 0-2.4-.7-2.5-1.7a.5.5 0 0 0-.5-.4h-1.2a.5.5 0 0 0-.4.3v.2c.2 1.7 1.3 2.9 3.5 3.2v1.6a.5.5 0 0 0 .5.5h1a.5.5 0 0 0 .5-.5V611c2-.3 3.4-1.8 3.4-3.6v.1Z" fill="#fff"/><path d="M36.6 614.6a10 10 0 0 1 0-18.8.7.7 0 0 0 .4-.7v-.9a.5.5 0 0 0-.2-.5.5.5 0 0 0-.5 0 12 12 0 0 0-6 18.5 12 12 0 0 0 6.2 4.5l.3-.1a.5.5 0 0 0 .2-.5v-1a.7.7 0 0 0-.4-.5Zm7-20.9a.5.5 0 0 0-.4 0 .5.5 0 0 0-.2.5v1a.7.7 0 0 0 .4.6 10 10 0 0 1 0 18.8.7.7 0 0 0-.4.6v1a.5.5 0 0 0 .2.4.5.5 0 0 0 .5 0 12 12 0 0 0 0-22.9h-.1Z" fill="#fff"/><path d="M78.2 538.1c2.6 0 4.4-1.3 4.8-3.9h-1.3c-.3 1.9-1.6 2.8-3.4 2.8-2.5 0-4-1.8-4-4.7 0-3 1.6-4.8 4-4.8 2 0 3 .9 3.2 2.6H83c-.2-2.5-2.3-3.7-4.6-3.7-3.1 0-5.4 2.4-5.4 5.8v.2c0 3.5 2 5.7 5.3 5.7h-.1Zm9 0A3 3 0 0 0 90 537v1.1h1.3v-5.5c0-2.4-1.4-3-3-3-1.7 0-3.2.7-3.3 2.6h1.3c.1-1 .7-1.5 1.9-1.5 1.3 0 1.8.6 1.8 1.9v.6h-1.2c-2.2 0-4.2.6-4.2 2.6 0 1.7 1.2 2.4 2.8 2.4l-.2-.1Zm.2-1c-1.2 0-1.6-.6-1.6-1.4 0-1.3 1.3-1.7 3-1.7h1v1c0 1.4-1 2-2.4 2v.1Zm9 1c2 0 3-1 3-2.5 0-1.8-1.1-2.2-2.9-2.5-1.5-.3-1.9-.6-1.9-1.3 0-.7.6-1.2 1.6-1.2s1.5.4 1.7 1.3h1.3c-.2-1.8-1.5-2.4-3-2.4-1.3 0-2.8.8-2.8 2.3 0 1.5.7 2.1 2.9 2.5 1.3.2 2 .5 2 1.4 0 1-.6 1.3-1.9 1.3-1.3 0-1.9-.6-2-1.6h-1.3c.1 1.7 1.3 2.7 3.3 2.7Zm5.1-.1h1.3v-5c0-1.6 1.1-2.4 2.4-2.4 1.3 0 2 .7 2 2.2v5.2h1.3v-5.1c0-2.5-1.2-3.4-3-3.4a3 3 0 0 0-2.7 1.5v-5.4h-1.3V538Zm16 2.4h1.3c-1.7-2-2.6-4.7-2.6-7.4 0-3.3 1.2-5.6 2.6-7.4h-1.3a11.2 11.2 0 0 0-2.7 7.4c0 3.2 1.2 5.6 2.7 7.4Zm7-2.3c3 0 4.4-1.7 4.4-4.5v-7h-1.4v6.9c0 2.8-1 3.5-2.9 3.5s-2.7-1-2.7-3.3v-7.1h-1.4v7.2c0 2.8 1.5 4.3 4 4.3Zm10.9 0c2.3 0 4-1.4 4-3.3 0-2.2-1.4-3-4-3.4-2.3-.3-2.7-.9-2.7-2 0-1 .8-1.9 2.4-1.9 1.6 0 2.4.6 2.7 2h1.2c-.2-2-1.6-3-3.9-3-2.2 0-3.7 1.3-3.7 3 0 2 1.4 2.8 3.8 3.2 2.2.3 2.8.9 2.8 2.2 0 1.3-1.1 2.1-2.6 2.1-2.3 0-2.8-1.1-3-2.5H131c.2 2 1.3 3.6 4.4 3.6Zm6.3-.1h3c4 0 5.9-2.5 5.9-5.7v-.1c0-3.2-1.9-5.6-5.8-5.6h-3V538h-.1Zm1.4-1.1v-9.2h1.6c3.1 0 4.4 1.8 4.4 4.5v.1c0 2.8-1.5 4.6-4.4 4.6h-1.6Zm8.7 3.4h1.3a11 11 0 0 0 2.6-7.4c0-3.2-1.1-5.6-2.6-7.3h-1.3c1.4 1.8 2.5 4 2.5 7.3s-1.1 5.6-2.5 7.4Zm150.3-.1h1v-2c2-.2 3.5-1.6 3.5-3.4 0-2.1-1.2-2.8-3.6-3.3v-4c1.2.2 1.9.8 2.1 2h1.2c-.2-1.8-1.4-2.9-3.3-3V525h-1v1.4c-2 .2-3.3 1.5-3.3 3.1 0 2 1.3 2.7 3.4 3v4.5c-2-.1-2.4-1.2-2.5-2.5h-1.4c.2 1.9 1.1 3.4 3.9 3.6v2.1Zm-2.1-10.8c0-1 .7-1.8 2-1.9v3.9c-1.7-.4-2-1-2-2Zm5.3 5.5c0 1.1-1 2-2.3 2.1v-4.2c1.8.3 2.3.9 2.3 2v.1Zm6.7 3.2c2.2 0 4-1.4 4-3.8s-1.5-3.8-3.6-3.8c-1 0-1.9.3-2.3.7v-3.4h5.3v-1.2h-6.5v6h.5c.6-.6 1.4-1 2.7-1 1.5 0 2.4 1 2.4 2.7 0 1.7-1 2.7-2.5 2.7-1.7 0-2.2-.8-2.4-2h-1.4c.2 1.8 1.4 3.1 3.8 3.1Zm9.4 0c2.8 0 4.3-2 4.3-5.9v-.7c0-3.3-1.4-5.1-4-5.1-2.5 0-4 1.5-4 3.8 0 2.2 1.5 3.8 3.7 3.8 1.3 0 2.4-.6 3-1.6 0 3-1.1 4.6-3 4.6-1.4 0-2-.7-2.3-1.8h-1.4c.3 1.8 1.6 3 3.7 3v-.1Zm.2-5.2c-1.5 0-2.5-1-2.5-2.7 0-1.7 1-2.7 2.5-2.7s2.7 1 2.7 2.9c0 1.5-1.1 2.5-2.7 2.5Zm6.5 5.2a1 1 0 0 0 .7-1.7 1 1 0 0 0-1.7.7 1 1 0 0 0 1 1Zm7 0c2.8 0 4.4-2.2 4.4-5.5v-.7c0-3.2-1.7-5.5-4.5-5.5s-4.5 2.2-4.5 5.6v.6c0 3.3 1.8 5.5 4.6 5.5Zm0-1.1c-2 0-3.2-1.5-3.2-4.4v-.6c0-2.9 1.2-4.5 3.1-4.5 2 0 3 1.8 3 4.4v.7c0 2.9-1 4.4-3 4.4h.1Zm10 1.1c2 0 4-1 4-3.4 0-1.5-.9-2.4-2.2-3 1-.4 1.7-1.2 1.7-2.3 0-1.8-1.7-3-3.5-3-1.7 0-3.5 1.1-3.5 3 0 1.1.7 2 1.8 2.4a3 3 0 0 0-2.2 3c0 2.2 2 3.3 4 3.3h-.1Zm0-6.8c-1 0-2-.7-2-1.9s.9-1.9 2-1.9c1.2 0 2.1.8 2.1 1.9 0 1.2-.8 1.9-2 1.9h-.1Zm0 5.7c-1.3 0-2.5-.8-2.5-2.3 0-1.5 1.2-2.3 2.6-2.3 1.4 0 2.5.8 2.5 2.3 0 1.5-1.1 2.3-2.6 2.3ZM77.5 602.1c2.9 0 4.3-1.7 4.3-4.5v-7h-1.4v6.9c0 2.8-1 3.5-3 3.5-1.8 0-2.7-1-2.7-3.3v-7.1h-1.4v7.2c0 2.8 1.5 4.3 4.2 4.3Zm10.8 0c2.2 0 4-1.4 4-3.3 0-2.2-1.4-3-4-3.4-2.3-.3-2.7-.9-2.7-2 0-1 .8-1.9 2.4-1.9 1.6 0 2.4.6 2.7 2h1.2c-.2-2-1.6-3-4-3-2 0-3.6 1.3-3.6 3 0 2 1.4 2.8 3.8 3.2 2.2.3 2.8.9 2.8 2.2 0 1.3-1.2 2.1-2.6 2.1-2.3 0-2.9-1.1-3-2.5h-1.4c.2 2 1.3 3.6 4.4 3.6Zm6.3-.1h3c4 0 5.8-2.5 5.8-5.7v-.1c0-3.2-1.8-5.6-5.8-5.6h-3V602Zm1.4-1.1v-9.2h1.6c3.1 0 4.4 1.8 4.4 4.5v.1c0 2.8-1.5 4.6-4.4 4.6H96Zm18.8 1.2c2.5 0 4.4-1.3 4.8-3.9h-1.3c-.3 1.9-1.6 2.8-3.5 2.8-2.5 0-4-1.8-4-4.7 0-3 1.7-4.8 4-4.8 2 0 3 .9 3.3 2.6h1.3c-.2-2.5-2.2-3.7-4.6-3.7-3.1 0-5.4 2.4-5.4 5.8v.2c0 3.5 2 5.7 5.4 5.7Zm10.3 0c2.3 0 4-1.7 4-4.2v-.2c0-2.5-1.7-4.2-4-4.2-2.4 0-4.1 1.7-4.1 4.3 0 2.5 1.7 4.3 4 4.3h.1Zm0-1c-1.7 0-2.8-1.3-2.8-3.2v-.1c0-2 1-3.2 2.8-3.2 1.6 0 2.7 1.2 2.7 3.2s-1 3.2-2.7 3.2v.1Zm6.8-9.2c.5 0 .9-.4.9-.9s-.4-.9-.9-.9-.9.4-.9 1 .4.8 1 .8h-.1Zm-.6 10.1h1.3v-8.4h-1.3v8.4Zm4 0h1.3v-5c0-1.6 1.1-2.4 2.4-2.4 1.3 0 2 .7 2 2.2v5.2h1.3v-5.1c0-2.5-1.2-3.4-3-3.4a3 3 0 0 0-2.7 1.5v-1.4h-1.3v8.4Zm158.2 4.2h1v-2c2-.2 3.5-1.6 3.5-3.4 0-2.1-1.2-2.8-3.6-3.3v-4c1.2.2 1.9.8 2.1 2h1.3c-.2-1.8-1.4-2.9-3.4-3V591h-.9v1.4c-2 .2-3.4 1.5-3.4 3.1 0 2 1.3 2.7 3.4 3v4.5c-2-.1-2.3-1.2-2.5-2.5h-1.3c.2 1.9 1 3.4 3.8 3.6v2.1Zm-2.1-10.8c0-1 .8-1.8 2.1-1.9v3.9c-1.8-.4-2.1-1-2.1-2Zm5.3 5.5c0 1.1-1 2-2.3 2.1v-4.2c1.8.3 2.3.9 2.3 2v.1Zm8.5 3.1h1.3v-2.4h1.6v-1.1h-1.6v-8h-1.8l-5.3 8.7v.4h5.8v2.4Zm-4-3.5 4-6.9v6.9h-4Zm12.1 3.6c2.4 0 4-1.2 4-3.3 0-1.6-.8-2.5-2.1-2.9 1-.4 1.8-1.2 1.8-2.5 0-1.5-1.3-3-3.4-3-2.1 0-3.7 1.5-3.8 3.3h1.2c.2-1.3 1.1-2.1 2.6-2.1 1.3 0 2 .8 2 1.9 0 1.2-.6 2-2.1 2h-.8v1h.9c1.6 0 2.4.8 2.4 2.3 0 1.4-.8 2.2-2.6 2.2s-2.7-1-2.8-2.4h-1.3c.1 2 1.6 3.5 4 3.5Zm9.7 0c2.7 0 4.3-2 4.3-5.9v-.7c0-3.3-1.4-5.1-4.1-5.1-2.4 0-4 1.5-4 3.8 0 2.2 1.6 3.8 3.8 3.8 1.3 0 2.4-.6 3-1.6 0 3-1.2 4.6-3 4.6-1.5 0-2.1-.7-2.4-1.8h-1.3c.3 1.8 1.6 3 3.7 3v-.1Zm.2-5.2c-1.6 0-2.6-1-2.6-2.7 0-1.7 1-2.7 2.6-2.7 1.5 0 2.6 1 2.6 2.9 0 1.5-1 2.5-2.6 2.5Zm6.4 5.2a1 1 0 0 0 .7-1.7 1 1 0 0 0-1.7.7 1 1 0 0 0 1 1Zm9.4-.1v-2.4h1.6v-1.1H339v-8h-2l-5.2 8.7v.4h5.7v2.4h1.5Zm-5.4-3.5 4-6.9v6.9h-4Zm7.8 3.5h7.7v-1.1h-5.5l3.1-3.1c1.4-1.4 2.3-2.8 2.3-4.2 0-2-1.3-3.2-3.4-3.2-2.2 0-3.5 1.4-3.7 3.7h1.3c.2-1.8 1-2.6 2.4-2.6 1.3 0 2 .8 2 2 0 1.3-.6 2.3-1.6 3.4l-4.6 4.8v.3Zm-46.1 80.2h1v-2c2-.2 3.5-1.6 3.5-3.4 0-2.1-1.2-2.8-3.5-3.3v-4c1.1.2 1.8.8 2 2h1.3c-.2-1.8-1.4-2.9-3.3-3V669h-1v1.4c-2 .2-3.4 1.5-3.4 3.1 0 2 1.3 2.7 3.4 3v4.5c-2-.1-2.3-1.2-2.5-2.5h-1.3c.2 1.9 1 3.4 3.8 3.6v2.1Zm-2.1-10.8c0-1 .8-1.8 2.1-1.9v3.9c-1.8-.4-2.1-1-2.1-2Zm5.3 5.5c0 1.1-1 2-2.2 2.1v-4.2c1.7.3 2.2.9 2.2 2v.1Zm7.3 3.2c2.4 0 4-1.5 4-3.8 0-2-1.5-3.7-3.8-3.7-1.3 0-2.4.6-3 1.5.1-3 1.3-4.5 3-4.5 1.3 0 1.9.5 2.2 1.6h1.3c-.3-1.9-1.6-2.8-3.4-2.8-2.6 0-4.4 2.2-4.4 6.3v.2c0 3 1 5.2 4 5.2h.1Zm0-1c-1.6 0-2.7-1-2.7-3 0-1.4 1.1-2.4 2.7-2.4 1.5 0 2.5 1 2.5 2.7 0 1.6-1 2.7-2.5 2.7Zm6.8.9h1.5l4.2-11.2v-.2h-7.5v1h5.8l-4 10.4Zm8.4 0h1.5l4.3-11.2v-.2h-7.6v1h5.8l-4 10.4Zm6.8 0a1 1 0 0 0 .7-1.7 1 1 0 0 0-1.7.7 1 1 0 0 0 1 1Zm6.5.1c2.2 0 4-1.4 4-3.8s-1.6-3.8-3.6-3.8c-1.1 0-2 .3-2.4.7v-3.4h5.3v-1.2h-6.4v6h.5c.6-.6 1.4-1 2.7-1 1.4 0 2.4 1 2.4 2.7 0 1.7-1 2.7-2.5 2.7-1.8 0-2.3-.8-2.5-2h-1.3c.1 1.8 1.3 3.1 3.8 3.1Zm10.3 0c2.8 0 4.4-2.2 4.4-5.5v-.7c0-3.2-1.6-5.5-4.4-5.5-2.8 0-4.5 2.2-4.5 5.6v.6c0 3.3 1.8 5.5 4.5 5.5Zm0-1.1c-1.9 0-3.1-1.5-3.1-4.4v-.6c0-2.9 1.1-4.5 3-4.5 2 0 3.1 1.8 3.1 4.4v.7c0 2.9-1 4.4-3 4.4Zm-271.2 1h4c2.2 0 3.7-1 3.7-3.2 0-1.6-.6-2.4-2.3-2.8a2.4 2.4 0 0 0 1.8-2.4c0-2.3-1.6-3-3.7-3h-3.5V682Zm1.4-6.4v-4h2c1.6 0 2.4.6 2.4 1.9 0 1.4-.6 2-2.3 2h-2.1v.1Zm0 5.3v-4.3h2.3c1.9 0 2.7.7 2.7 2.1 0 1.5-.8 2.2-2.5 2.2h-2.5Zm9.2-9c.4 0 .8-.4.8-.9s-.4-.9-.8-.9-1 .4-1 1 .5.8 1 .8Zm-.7 10.1h1.4v-8.4h-1.4v8.4Zm6.6.1c.6 0 .9 0 1.2-.2v-1h-1c-.7 0-1.1-.3-1.1-1.1v-5h2v-1.2h-2v-1.9h-1.3v2h-1.2v1h1.2v5.2c0 1.3.7 2.2 2.2 2.2Zm6.6 0c2 0 3.5-1.3 3.7-3.1H99c-.2 1.4-1.3 2-2.4 2-1.7 0-2.8-1-2.8-3.1v-.1c0-2 1.2-3.2 2.7-3.2 1.2 0 2.1.5 2.3 1.8h1.3c-.2-2.1-1.9-3-3.6-3-2.2 0-4 1.8-4 4.4v.1c0 2.6 1.7 4.2 4 4.2Zm9.2 0c2.3 0 4-1.7 4-4.2v-.2c0-2.5-1.7-4.2-4-4.2-2.4 0-4.1 1.7-4.1 4.3 0 2.5 1.7 4.3 4 4.3h.1Zm0-1c-1.7 0-2.8-1.3-2.8-3.2v-.1c0-2 1.1-3.2 2.8-3.2 1.6 0 2.7 1.2 2.7 3.2s-1 3.2-2.7 3.2v.1Zm6.8-9.2c.5 0 .9-.4.9-.9s-.4-.9-.9-.9-.9.4-.9 1 .4.8 1 .8h-.1ZM112 682h1.3v-8.4H112v8.4Zm4 0h1.4v-5c0-1.6 1-2.4 2.3-2.4 1.3 0 2 .7 2 2.2v5.2h1.3v-5.1c0-2.5-1.2-3.4-3-3.4-1.3 0-2.3.7-2.6 1.5v-1.4H116v8.4Z" fill="#071422"/><path d="M40 693a16 16 0 1 0 0-32 16 16 0 0 0 0 32Z" fill="#F7931A"/><path d="M47 675c.3-2-1.3-3.2-3.4-4l.7-2.8-1.8-.4-.6 2.7c-.5 0-1-.2-1.4-.3l.7-2.8-1.8-.4-.7 2.8-1-.2-2.5-.6-.4 1.8 1.2.3c.7.2.9.7.8 1l-.8 3.3h.2-.2l-1 4.5c-.2.2-.4.5-.9.4L33 680l-.9 2 2.3.6 1.2.3-.7 2.8 1.7.5.7-2.9 1.4.4-.7 2.8 1.7.4.7-2.8c3 .5 5.2.3 6.1-2.4.8-2.1 0-3.3-1.6-4.1 1.2-.3 2-1 2.2-2.6H47Zm-4 5.6c-.5 2.1-4 1-5.2.7l1-3.9c1 .3 4.8 1 4.3 3.2H43Zm.6-5.6c-.5 2-3.5 1-4.5.7l1-3.4c.9.2 4 .7 3.5 2.7Z" fill="#fff"/><path d="m24 357.3 2.7 5a1 1 0 0 0 1.7 0l2.5-3.9.3-.3 3-2c.3 0 .4-.2.5-.4L38 348l2.2-7.6c.3-1 1.8-1 2 .1l2.3 14.7a1 1 0 0 0 1.9.3l2.1-3.5 2.4-3a1 1 0 0 1 1.7.3l2.4 7a1 1 0 0 0 1.7.4l2.2-2.3.2-.3 3.2-8.6a1 1 0 0 1 1-.7h2.2a1 1 0 0 0 .8-.5l2-3.8a1 1 0 0 1 1.6-.3l.3.6 2.7 12.7a1 1 0 0 0 1 .8H76a1 1 0 0 0 .9-.6l2-3.7a1 1 0 0 1 1.8.3l2.2 11c.2 1 1.6 1.2 2 .2l1.5-4.9a1 1 0 0 1 1.4-.4c.2 0 .3.2.4.4l1.8 3.6a1 1 0 0 0 .8.6 1 1 0 0 0 .9-.3l1.1-1.2a1 1 0 0 1 1.5 0l.2.5 2.7 14.8a1 1 0 0 0 1.9.4l1.5-2.4a1 1 0 0 1 .7-.5 1 1 0 0 1 .8.2l1.2.8a1 1 0 0 0 .8.1 1 1 0 0 0 .6-.5l3-5.9a1 1 0 0 1 .7-.6 1 1 0 0 1 .8.2l2.5 1.7 3.3 2 .5.1h2.4a1 1 0 0 0 1-.8l3.4-20.3v-.4l3.5-5.7 3.5-6.7v-.1l3.5-10.6.2-.4 3.2-3.2.2-.4 2.6-9.3a1 1 0 0 1 1.9 0l2 5.7a1 1 0 0 0 .7.6 1 1 0 0 0 .9-.2l1.7-1.8a1 1 0 0 1 1.4 0l2.5 2.3.4.5 2.5 14.1c.1 1.1 1.7 1.1 2 0l1.8-10.4a1 1 0 0 1 1.6-.9c.2.2.4.4.4.7l2 4.5.3.4 2.3 1.8a1 1 0 0 0 1 .2 1 1 0 0 0 .6-.6l1.6-3.7c.4-1 1.7-.7 1.9.3l2.5 17.8c.1 1 1.5 1.1 1.9.2l1.8-4.2a1 1 0 0 1 1-.7h2.2a1 1 0 0 0 .9-.5l3.2-7.1 3-7.8a1 1 0 0 1 .7-.6 1 1 0 0 1 .9.3l2.3 2.8.4.3h.2a1 1 0 0 0 1.4-.9l1.6-43 .3-.6 3.1-3.1.3-.4 3.2-10a1 1 0 0 1 1-.6h2a1 1 0 0 0 1-.6l2.6-6.5a.8.8 0 0 1 .7-.6.8.8 0 0 1 .8.4v0a2.5 2.5 0 0 0 4.2 0l.7-1 .6-.6 1.4-1.2a3 3 0 0 0 1-1.3l1.9-5.5c.8-2.4 4.3-2.2 5 .3l.2 1.2a2 2 0 0 0 3.6.6 2 2 0 0 1 3.5.3l.2.4a2.3 2.3 0 0 0 4.2-.2l2.5-6a2.8 2.8 0 0 1 2-1.6h.4c.4-.2.8-.4 1.1-.8 1-1.3 3-.8 3.3.8l1.4 8a2.2 2.2 0 0 0 2.2 1.8h.2c.6 0 1.1-.3 1.4-.8.8-1.2 2.7-1 3 .5l1.1 4c.4 1.2 2 1.4 2.7.3a1.5 1.5 0 0 1 2-.5l.5.5 1.2 1.6c.3.5 1 .7 1.5.5a1.3 1.3 0 0 1 1.8 1l1.5 9.2c.3 1.6 2 1.2 3.7 1.2 1.6 0 3.2.2 3.8-1.1l.5-1a3 3 0 0 1 4.6-.8l.3.2a3 3 0 0 0 2 .7h.1a3 3 0 0 0 3-2.6l2.1-18 .3-.8 5.6-12.3.3-.7 1.7-9.2a3 3 0 0 1 .8-1.6l1.8-1.7c.4-.4.7-.9.8-1.4l1-3.9a2 2 0 0 1 3.6-.4l.1.1a1.8 1.8 0 0 0 2.8.6v0a1.8 1.8 0 0 1 2.4 0l.7.7c.4.5.7 1 .8 1.6l.9 6.4c.3 1.7 2.7 2 3.3.3a1.7 1.7 0 0 1 3-.4l1.5 2.1a1.6 1.6 0 0 0 2.5.2v0c.9-1 2.5-.6 2.7.7l1.7 9.4c.2 1.6 2.3 2 3.2.7a1.8 1.8 0 0 1 1.5-.8h.3a2.4 2.4 0 0 0 2.3-1.6l3.8-11.7a1.4 1.4 0 0 1 2.1-.6v0a1.4 1.4 0 0 0 2.2-1l2.3-37.6c0-.6.3-1.3.7-1.8l2.4-2.7c.3-.3.5-.7.6-1l.7-2.2.1-.7.5-6.1V171c.2-3 4.1-4 5.6-1.5l.4.6" stroke="#0052FF" stroke-width="3" stroke-linecap="round"/><path opacity=".1" d="M350 181a11 11 0 1 0 0-22 11 11 0 0 0 0 22Z" fill="#0052FF"/><path opacity=".2" d="M350 177a7 7 0 1 0 0-14 7 7 0 0 0 0 14Z" fill="#0052FF"/><path d="M350 174a4 4 0 1 0 0-8 4 4 0 0 0 0 8ZM212.9 469h1.7v-9.3h-1.5l-2.2 1.5v1.6l2-1.4v7.6Zm4.1 0h1.6v-7l2.8 7h.5l2.8-7v7h1.7v-9.3h-2.2l-2.4 6.3-2.5-6.3H217v9.3Z" fill="#0052FF"/><path d="M31.8 469h1.7v-9.3H32l-2.2 1.5v1.6l2-1.4v7.6Zm4.1 0h1.7v-4h4.2v4h1.8v-9.3h-1.8v4h-4.2v-4H36v9.3h-.1Zm55.6 0h1.8v-9.3h-1.6l-2.1 1.5v1.6l2-1.4v7.6h-.1Zm4.1 0h2.8c3.3 0 4.9-2 4.9-4.6v-.1c0-2.7-1.6-4.6-4.8-4.6h-2.9v9.3Zm1.8-1.4v-6.5h1c2.2 0 3 1.2 3 3.2 0 2.1-1 3.3-3 3.3h-1Zm53 1.4h1.8v-9.3h-1.6l-2.1 1.5v1.6l2-1.4v7.6h-.1Zm5.8 0h1.6l1.9-6.8 1.8 6.8h1.8l2.3-9.3H164l-1.7 6.9-1.8-6.9H159l-1.8 6.8-1.6-6.8H154l2.3 9.3h-.1Zm118.4 0h1.7v-9.3h-1.5l-2.2 1.5v1.6l2-1.4v7.6Zm6.3 0h1.8v-4l2.9-5.3h-1.7l-2 3.9-2.1-3.9h-2l3.1 5.3v4Zm50.3 0h1.6l.7-2.3h3.6l.7 2.3h1.8l-3-9.3h-2.3l-3.1 9.3Zm4-7.9 1.5 4.3h-2.8l1.4-4.3h-.1Zm5.7 7.9h1.6v-10h-1.6v10Zm3.5 0h1.6v-10h-1.6v10Z" fill="#5B616E"/><path d="M74.5 621h1.1v-9.3h-1l-2.2 1.6v1l2.1-1.5v8.2Zm4.3 0a.8.8 0 1 0 0-1.6.8.8 0 0 0-.9.8.8.8 0 0 0 .9.9v-.1Zm2 0h6.3v-1h-4.5l2.6-2.4c1.1-1.1 1.8-2.3 1.8-3.4 0-1.6-1-2.6-2.8-2.6-1.7 0-2.9 1.1-3 3h1c.2-1.5 1-2.1 2-2.1s1.7.6 1.7 1.7c0 1-.5 1.8-1.4 2.7l-3.6 3.8v.3h-.1Zm10.7.1a3 3 0 0 0 3.1-3.1c0-2-1.2-3.1-2.8-3.1-1 0-1.6.3-2 .6v-2.8h4.4v-1h-5.3v5h.4c.5-.6 1.2-1 2.2-1 1.2 0 2 1 2 2.3 0 1.4-.8 2.2-2 2.2-1.5 0-1.9-.7-2-1.7h-1.1c0 1.5 1 2.6 3 2.6h.1Zm6.1-5c1.1 0 2.1-1 2.1-2.3 0-1.2-1-2.2-2-2.2a2.2 2.2 0 0 0-.1 4.4v.1Zm-.8 4.9h1l5.7-9.3h-1l-5.7 9.3Zm.8-5.8c-.7 0-1.1-.5-1.1-1.4 0-.8.4-1.3 1.1-1.3.7 0 1.2.5 1.2 1.3 0 .9-.5 1.4-1.2 1.4Zm5 5.9c1.2 0 2.2-1 2.2-2.2 0-1.3-1-2.2-2.1-2.2a2.2 2.2 0 0 0-2 3 2.2 2.2 0 0 0 2 1.4h-.1Zm0-.8c-.6 0-1-.5-1-1.4 0-.9.4-1.3 1-1.3.8 0 1.2.5 1.2 1.3 0 .9-.4 1.4-1.1 1.4h-.1Zm6.5.7h1.1l1-2.7h3.7l1 2.7h1l-3-9.3h-1.6l-3.2 9.3Zm4-8.4 1.5 4.8h-3.2l1.6-4.8h.1Zm5.5 8.4h1.1v-3.8h1.5c1.8 0 3.3-.8 3.3-2.7 0-2-1.5-2.8-3.3-2.8h-2.6v9.3Zm1.1-8.4h1.6c1.3 0 2 .5 2 1.8s-.7 2-2 2h-1.6v-3.8Zm8.6 8.4h1.2v-4l2.9-5.3h-1.1l-2.4 4.3-2.4-4.3h-1.3l3.1 5.2v4.1Zm178.4-470.2h.7V149c1.7-.1 3-1.2 3-2.7 0-1.7-1-2.3-3-2.7v-3.2c1 .1 1.5.6 1.7 1.6h1c-.1-1.5-1.1-2.3-2.7-2.5v-1.2h-.7v1.2c-1.7.1-2.8 1.2-2.8 2.5 0 1.6 1 2.2 2.8 2.5v3.6c-1.6-.1-2-1-2-2h-1.2c.2 1.5 1 2.7 3.2 2.9v1.8ZM305 142c0-.8.6-1.4 1.7-1.5v3.1c-1.5-.3-1.7-.8-1.7-1.6Zm4.3 4.5c0 1-.8 1.6-1.9 1.7v-3.5c1.5.3 1.9.8 1.9 1.8Zm4.3 2.5h1.2v-9.3h-1.1l-2.2 1.6v1l2.1-1.5v8.2Zm3.6 1.6 1.6-2.7-1-.5-1.3 2.8.7.4Zm5.3-1.6v-9.3h-1l-2.2 1.6v1l2-1.5v8.2h1.2Zm5.5.1c1.6 0 3.2-1 3.2-2.8 0-1.2-.7-2-1.8-2.4.9-.3 1.5-1 1.5-2 0-1.4-1.4-2.3-2.9-2.3-1.4 0-2.8.9-2.8 2.4 0 1 .5 1.6 1.4 2-1 .3-1.8 1.1-1.8 2.4 0 1.8 1.7 2.7 3.2 2.7Zm0-5.5c-.9 0-1.7-.6-1.7-1.6s.8-1.5 1.7-1.5c.9 0 1.7.6 1.7 1.5 0 1-.7 1.6-1.6 1.6h-.1Zm0 4.6c-1 0-2-.7-2-1.9s1-1.9 2-1.9 2 .7 2 1.9-.8 1.9-2 1.9Zm8.3 1c2.3 0 3.6-1.9 3.6-4.6v-.5c0-2.7-1.3-4.5-3.6-4.5s-3.7 1.8-3.7 4.5v.5c0 2.7 1.5 4.5 3.7 4.5v.1Zm0-1c-1.5 0-2.5-1.2-2.5-3.6v-.5c0-2.3.9-3.6 2.5-3.6s2.5 1.4 2.5 3.6v.5c0 2.3-.9 3.6-2.5 3.6Zm5.6.9a.8.8 0 0 0 .8-.9.8.8 0 0 0-.8-.8h-.3a.8.8 0 0 0-.6.8.8.8 0 0 0 .2.7.8.8 0 0 0 .7.2Zm5.2 0c2 0 3.3-1 3.3-2.7 0-1.3-.7-2-1.7-2.3.8-.4 1.4-1 1.4-2 0-1.3-1-2.5-2.8-2.5-1.8 0-3 1.2-3 2.7h1c0-1 .9-1.8 2-1.8 1.2 0 1.7.7 1.7 1.6 0 1-.5 1.6-1.7 1.6h-.7v1h.7c1.3 0 2 .5 2 1.7 0 1.1-.7 1.8-2.1 1.8-1.5 0-2.2-.8-2.3-2h-1c0 1.7 1.3 3 3.2 3v-.1Zm7.8 0c2 0 3.3-1 3.3-2.7 0-1.3-.7-2-1.8-2.3.9-.4 1.5-1 1.5-2 0-1.3-1-2.5-2.8-2.5-1.8 0-3 1.2-3 2.7h1c0-1 .8-1.8 2-1.8 1.1 0 1.7.7 1.7 1.6 0 1-.5 1.6-1.7 1.6h-.7v1h.7c1.3 0 2 .5 2 1.7 0 1.1-.7 1.8-2.1 1.8-1.5 0-2.2-.8-2.3-2h-1c0 1.7 1.2 3 3.2 3v-.1ZM87 394.8h.7V393c1.7-.1 3-1.2 3-2.7 0-1.7-1-2.3-3-2.7v-3.2c1 .1 1.5.6 1.7 1.6h1c-.1-1.5-1.1-2.3-2.7-2.5v-1.2H87v1.2c-1.7.1-2.8 1.2-2.8 2.5 0 1.6 1 2.2 2.8 2.5v3.6c-1.6-.1-2-1-2-2h-1.2c.2 1.5 1 2.7 3.2 2.9v1.8Zm-2-8.8c0-.8.7-1.4 1.8-1.5v3.1c-1.5-.3-1.8-.8-1.8-1.6Zm4.4 4.5c0 1-.8 1.6-1.9 1.7v-3.5c1.4.3 1.9.8 1.9 1.8Zm5.8 2.6c1.5 0 3.2-1 3.2-2.8 0-1.2-.7-2-1.8-2.4a2 2 0 0 0 1.4-2c0-1.4-1.4-2.3-2.8-2.3-1.5 0-2.9.9-2.9 2.4 0 1 .5 1.6 1.4 2-1 .3-1.7 1.1-1.7 2.4 0 1.8 1.6 2.7 3.2 2.7Zm0-5.5c-1 0-1.8-.6-1.8-1.6s.8-1.5 1.8-1.5 1.7.6 1.7 1.5c0 1-.7 1.6-1.7 1.6Zm0 4.6c-1.1 0-2-.7-2-1.9s.9-1.9 2-1.9c1 0 2 .7 2 1.9s-.9 1.9-2 1.9Zm8.3 1c2.2 0 3.6-1.9 3.6-4.6v-.5c0-2.7-1.4-4.5-3.7-4.5-2.2 0-3.6 1.8-3.6 4.5v.5c0 2.7 1.4 4.5 3.7 4.5v.1Zm0-1c-1.6 0-2.6-1.2-2.6-3.6v-.5c0-2.3 1-3.6 2.5-3.6s2.5 1.4 2.5 3.6v.5c0 2.3-.8 3.6-2.4 3.6Zm8 1c1.8 0 3.2-1.3 3.2-3.2 0-2-1.3-3.1-3-3.1a3 3 0 0 0-1.8.6v-2.8h4.3v-1H109v5h.5c.5-.6 1-1 2.2-1 1.1 0 2 1 2 2.3 0 1.4-.9 2.2-2.1 2.2-1.4 0-1.9-.7-2-1.7h-1.1c.1 1.5 1 2.6 3 2.6v.1Zm5.3-.1a.8.8 0 0 0 .8-.9.8.8 0 0 0-.8-.8.8.8 0 0 0-.6.2.8.8 0 0 0-.3.6.8.8 0 0 0 .2.7.8.8 0 0 0 .7.2Zm6.4-.1h1.2v-2h1.2v-.9h-1.2v-6.4h-1.6l-4.2 7v.3h4.6v2Zm-3.2-2.9 3.2-5.5v5.5H120Zm9.8 3a3 3 0 0 0 3.1-3.1c0-2-1.2-3.1-2.8-3.1-1 0-1.6.3-2 .6v-2.8h4.4v-1h-5.3v5h.4c.5-.6 1.2-1 2.2-1 1.2 0 2 1 2 2.3 0 1.4-.8 2.2-2 2.2-1.5 0-1.9-.7-2-1.7h-1.1c.1 1.5 1 2.6 3 2.6h.1Z" fill="#587088"/><path d="M25 71h1.8v-3.5H28c2 0 3.4-1 3.4-2.9 0-2-1.4-2.9-3.4-2.9h-3V71Zm1.8-4.8V63H28c1 0 1.7.5 1.7 1.6 0 1-.6 1.6-1.7 1.6h-1.3.1Zm8.9 5c2 0 3.5-1.4 3.5-3.6S37.7 64 35.7 64s-3.5 1.4-3.5 3.5 1.5 3.5 3.5 3.5v.2Zm0-1.3c-1.2 0-1.9-.9-1.9-2.3 0-1.5.7-2.3 1.9-2.3s1.9.9 1.9 2.3-.7 2.3-1.9 2.3Zm4.9 1.1h1.6v-3.5c0-1.5.8-2 2.2-2v-1.4c-1.2 0-1.8.5-2.2 1.4v-1.3h-1.6V71Zm7.6.1c.4 0 .8 0 1-.2v-1.2a2 2 0 0 1-.7.1c-.5 0-.8-.2-.8-.8v-3.6h1.5v-1.2h-1.5v-1.5H46v1.5h-1v1.2h1V69c0 1.3.7 2 2 2l.2.1Zm2.7-.1h1.5v-5.6H54v-1.2h-1.6v-1c0-.6.3-1 1-1l.7.1v-1.2l-1-.1c-1.4 0-2.2.8-2.2 2.3v.9h-1v1.2h1V71Zm7.1.1c2 0 3.5-1.3 3.5-3.5S60 64 58.1 64c-2 0-3.5 1.4-3.5 3.5S56 71 58 71v.1Zm0-1.2c-1.1 0-1.8-.9-1.8-2.3 0-1.5.7-2.3 1.9-2.3s1.8.9 1.8 2.3-.7 2.3-1.8 2.3H58Zm5 1.1h1.6V61H63v10Zm4.3-8c.5 0 1-.3 1-.8s-.5-1-1-1a1 1 0 0 0-1 1c0 .5.5.9 1 .9V63Zm-.8 8h1.6v-6.8h-1.6V71Zm6.5.1c2 0 3.5-1.3 3.5-3.5S75 64 73.1 64c-2 0-3.5 1.4-3.5 3.5S71 71 73 71v.1Zm0-1.2c-1.1 0-1.8-.9-1.8-2.3 0-1.5.7-2.3 1.9-2.3s1.8.9 1.8 2.3-.7 2.3-1.8 2.3H73Zm12 1.2c1.7 0 3-1.3 3-3.5 0-2.3-1.3-3.5-3-3.5-1 0-1.9.5-2.3 1.2V61h-1.5v10h1.5v-1c.4.6 1.2 1.1 2.3 1.1Zm-.4-1.2c-1.2 0-2-.7-2-2.3 0-1.6.9-2.3 2-2.3 1 0 1.8.7 1.8 2.2v.1c0 1.5-.7 2.3-1.8 2.3ZM91 71c1 0 1.6-.3 2-1v.9h1.6v-4.5c0-1.8-1.2-2.4-2.7-2.4-1.5 0-2.8.6-3 2.2h1.6c0-.7.5-1 1.3-1 1 0 1.2.4 1.2 1.3v.4h-.8c-2 0-3.5.5-3.5 2.1 0 1.4 1 2 2.3 2Zm.3-1.1c-.7 0-1-.4-1-1 0-.8.7-1 2-1h.7v.6c0 .9-.7 1.4-1.7 1.4Zm5.1 1H98V61h-1.6v10-.1Zm5.3.1c1 0 1.6-.3 2-1v.9h1.6v-4.5c0-1.8-1.2-2.4-2.7-2.4-1.5 0-2.8.6-2.9 2.2h1.5c.1-.7.5-1 1.3-1 1 0 1.3.4 1.3 1.3v.4h-.9c-2 0-3.5.5-3.5 2.1 0 1.4 1 2 2.3 2Zm.4-1.1c-.8 0-1.1-.4-1.1-1 0-.8.8-1 2-1h.8v.6c0 .9-.8 1.4-1.7 1.4Zm5 1h1.6v-4c0-1 .7-1.6 1.6-1.6 1 0 1.4.4 1.4 1.5V71h1.5v-4.3c0-1.8-1-2.6-2.3-2.6-1.1 0-1.9.5-2.2 1.2v-1.1h-1.6V71v-.1Zm11 .1c1.8 0 3-1 3-2.6h-1.4c0 1-.8 1.4-1.6 1.4-1.2 0-1.9-.8-1.9-2.2v-.1c0-1.4.8-2.3 1.9-2.3.8 0 1.4.4 1.5 1.3h1.5c-.1-1.9-1.6-2.5-3-2.5a3.3 3.3 0 0 0-3.5 3.5c0 2.3 1.5 3.5 3.4 3.5h.1Zm7.4 0c1.8 0 3-.7 3.1-2.2h-1.5c-.1.7-.6 1-1.5 1-1.2 0-1.9-.7-2-2h5v-.4c0-2.4-1.5-3.4-3.1-3.4-2 0-3.4 1.4-3.4 3.5 0 2.2 1.4 3.5 3.4 3.5Zm-1.8-4.2c.2-1 .8-1.7 1.8-1.7s1.5.5 1.6 1.7h-3.4Z" fill="#708599"/><path d="M32 111.8h2v-3.5c4.1-.3 6.5-3 6.5-6.2 0-3.8-2.4-5.2-6.5-5.9v-5.7c1.7.3 2.6 1.3 2.9 3H40c-.4-3.5-2.6-5.4-6.2-5.7v-2.6H32v2.6c-3.8.2-6.3 2.5-6.3 5.6 0 3.6 2.2 5.1 6.3 5.8v6.3c-2.7-.3-3.3-1.9-3.5-3.7H25c.3 3.4 2.2 6.1 7 6.5v3.5ZM29 93c0-1.4 1-2.5 3-2.7v5.5c-2.5-.5-3-1.3-3-2.8Zm8 9.3c0 1.7-1.2 2.9-3.1 3.1v-6c2.4.5 3 1.3 3 3l.1-.1Zm9.3 5.6h3.8v-20h-3.3l-4.7 3.3v3.3l4.2-3V108v-.1Zm8.5 3.4 3.7-6.2-3.2-1.3-2.6 6.6 2.1 1v-.1Zm7.8-3.4h3.7v-20H63l-4.7 3.3v3.3l4.3-3V108v-.1Zm9.7 0h3.8l7.3-19.6v-.4h-14v3h9.3l-6.4 17Zm19.6.3c4.6 0 7.4-2.8 7.4-6.8s-2.7-6.5-6.6-6.5c-2.3 0-4 1-5 2.5.2-4.5 2-7 4.7-7 1.9 0 2.7 1 3 2.5H99c-.5-3.5-2.9-5.3-6.5-5.3-4.8 0-8.3 3.8-8.3 10.7v.5c0 5.3 2 9.4 7.8 9.4h-.1Zm0-2.8c-2.3 0-3.9-1.5-3.9-4.2 0-2.2 1.6-3.8 3.9-3.8s3.7 1.7 3.7 4c0 2.4-1.5 4-3.7 4Zm11.5 2.7a2.2 2.2 0 1 0 0-4.4 2.2 2.2 0 0 0 0 4.4Zm6.5-.2h3.7v-20h-3.3l-4.6 3.3v3.3l4.2-3V108v-.1Zm11 0h3.8v-20h-3.3l-4.7 3.3v3.3l4.2-3V108v-.1Z" fill="#050F19"/><path d="M0 708h375" stroke="#F1F3F5"/><path fill-rule="evenodd" clip-rule="evenodd" d="M168 748c0-11 9-20 20-20s20 9 20 20-9 20-20 20-20-9-20-20Zm29-3-4 4v-3h-7v-2h7v-3l4 4Zm-14 5h7v2h-7v3l-4-4 4-4v3Zm-81.2 11h-1.4v-7.1h2.3c1.7 0 2.7.7 2.7 2.2 0 1.5-1.1 2.2-2.6 2.2h-1v2.7Zm0-6v2.3l-.1.1h1c.9 0 1.4-.4 1.4-1.2 0-.9-.5-1.2-1.3-1.2h-1Zm9.5 3.4c0 1.7-1.2 2.7-2.7 2.7a2.6 2.6 0 0 1-2.7-2.7c0-1.7 1.2-2.7 2.7-2.7 1.5 0 2.7 1 2.7 2.7Zm-4.1 0c0 1.1.4 1.7 1.4 1.7v.1c.9 0 1.4-.8 1.4-1.8v-.1c0-1-.5-1.7-1.4-1.7-.9 0-1.4.7-1.4 1.8Z" fill="#0052FF"/><path d="M113.6 761h-1.2v-5.3h1.2v1c.3-.6.8-1 1.7-1v1.1c-1.1 0-1.7.4-1.7 1.5v2.7Zm5.4 0h-.8v.1c-1.1 0-1.6-.6-1.6-1.6v-2.8h-.7v-1h.7v-1h1.2v1h1.2v1h-1.2v2.7c0 .5.2.7.6.7l.6-.1v1Zm2.5 0h-1.2v-4.3h-.7v-.9h.7v-.7c0-1.2.7-1.8 1.7-1.8l.7.1v.9l-.5-.1c-.5 0-.7.4-.7.8v.7h1.2v1h-1.2v4.3Z" fill="#0052FF"/><path fill-rule="evenodd" clip-rule="evenodd" d="M128.5 758.4c0 1.7-1.2 2.7-2.7 2.7a2.6 2.6 0 0 1-2.7-2.7c0-1.7 1.2-2.7 2.7-2.7 1.5 0 2.7 1 2.7 2.7Zm-4.2 0c0 1.1.5 1.7 1.5 1.7v.1c.9 0 1.4-.8 1.4-1.8v-.1c0-1-.5-1.7-1.4-1.7-.9 0-1.5.7-1.5 1.8Z" fill="#0052FF"/><path d="M130.8 761h-1.2v-7.7h1.2v7.7Zm2.8-6.8c0 .4-.3.8-.7.8v-.1a.7.7 0 0 1-.7-.7c0-.4.3-.7.7-.7.4 0 .7.3.7.7Zm-.1 1.6v5.2h-1.2v-5.2h1.2Z" fill="#0052FF"/><path fill-rule="evenodd" clip-rule="evenodd" d="M140 758.4c0 1.7-1.1 2.7-2.7 2.7s-2.6-1.1-2.6-2.7c0-1.7 1.1-2.7 2.6-2.7 1.6 0 2.7 1 2.7 2.7Zm-4.1 0c0 1.1.5 1.7 1.4 1.7v.1c.9 0 1.5-.8 1.5-1.8v-.1c0-1-.5-1.7-1.5-1.7-.9 0-1.4.7-1.4 1.8Z" fill="#0052FF"/><path d="M115.2 734.7a7.3 7.3 0 0 1 4.1-1.2h-.1v7.3h7.3a7.3 7.3 0 1 1-11.3-6.1Z" fill="#0052FF"/><path d="M40 761v-3h3v3h1.3v-7.2H43v3h-3.2v-3h-1.4v7.2H40Z" fill="#5B616E"/><path fill-rule="evenodd" clip-rule="evenodd" d="M48.2 761.1c1.6 0 2.7-1 2.7-2.7 0-1.7-1.1-2.7-2.6-2.7-1.6 0-2.7 1-2.7 2.7 0 1.6 1.1 2.7 2.6 2.7Zm0-1c-.9 0-1.4-.6-1.4-1.7s.6-1.8 1.5-1.8 1.4.7 1.4 1.7v.1c0 1-.5 1.8-1.4 1.8l-.1-.1Z" fill="#5B616E"/><path d="M52 761h1.2v-3.1c0-.8.6-1.2 1.2-1.2s1 .3 1 1v3.3h1.1v-3.1c0-.8.6-1.2 1.2-1.2s1 .3 1 1v3.3h1.1v-3.3c0-1.4-.8-2-1.7-2a2 2 0 0 0-1.8.9c-.3-.6-.8-1-1.5-1s-1.3.5-1.6 1v-.8H52v5.2Z" fill="#5B616E"/><path fill-rule="evenodd" clip-rule="evenodd" d="M63.5 761.1c1.3 0 2.2-.6 2.4-1.7h-1.2c0 .5-.4.8-1.2.8-.9 0-1.4-.6-1.4-1.6h3.8v-.3c0-1.9-1.1-2.6-2.4-2.6-1.5 0-2.6 1-2.6 2.7 0 1.7 1 2.7 2.6 2.7Zm-1.4-3.3c.1-.8.6-1.3 1.4-1.3.7 0 1.2.4 1.2 1.3h-2.6Z" fill="#5B616E"/><path d="m52 732-8 5v11h6v-7h4v7h6v-11l-8-5Z" fill="#5B616E"/><path fill-rule="evenodd" clip-rule="evenodd" d="M242.2 761h1.3v-2.7h1c1.5 0 2.6-.7 2.6-2.2 0-1.5-1-2.2-2.6-2.2h-2.3v7.1Zm1.3-6h1c.8 0 1.3.3 1.3 1.2 0 .8-.5 1.2-1.3 1.2h-1V755Z" fill="#5B616E"/><path d="M248.2 761h1.2v-2.7c0-1.1.6-1.5 1.7-1.5v-1.1c-1 0-1.4.4-1.7 1v-1h-1.2v5.3Zm4.5-6c.4 0 .8-.4.8-.8s-.4-.7-.8-.7-.7.3-.7.7c0 .4.3.7.7.7v.1Zm-.5 6h1.2v-5.2h-1.2v5.2Zm5 .1c1.4 0 2.3-.8 2.4-2h-1.2c0 .7-.6 1-1.2 1-1 0-1.5-.5-1.5-1.7 0-1.1.6-1.8 1.5-1.8.6 0 1 .3 1.2 1h1.1c-.1-1.4-1.2-2-2.4-2-1.4 0-2.6 1.1-2.6 2.8 0 1.7 1.1 2.7 2.6 2.7h.1Z" fill="#5B616E"/><path fill-rule="evenodd" clip-rule="evenodd" d="M262.9 761.1c1.3 0 2.2-.6 2.4-1.7H264c0 .5-.4.8-1.2.8-.9 0-1.4-.6-1.4-1.6h3.8v-.3c0-1.9-1.2-2.6-2.5-2.6-1.4 0-2.6 1-2.6 2.7 0 1.7 1.2 2.7 2.7 2.7h.1Zm-1.4-3.3c.1-.8.6-1.3 1.3-1.3.8 0 1.3.4 1.3 1.3h-2.6Z" fill="#5B616E"/><path d="M268.2 761.1c1.4 0 2.1-.6 2.1-1.7 0-1-.7-1.4-2-1.6-.8-.1-1-.3-1-.6 0-.4.3-.7.8-.7.6 0 .8.3 1 .7h1c0-1.1-1-1.5-2-1.5s-2 .5-2 1.5.6 1.4 2 1.6c.7.2 1 .3 1 .7 0 .5-.2.7-.9.7s-1-.3-1-.8H266c0 1 .9 1.7 2.2 1.7ZM252 742.7h-4v5.3h4v-5.3Zm6-5.4h-4V748h4v-10.7Zm6-5.3h-4v16h4v-16Zm43.4 29.1c1.6 0 2.7-1 2.7-2.2 0-1.4-.9-2-2.6-2.1-1.2-.2-1.5-.5-1.5-1.1 0-.6.5-1 1.3-1s1.2.4 1.4 1.1h1.2c-.2-1.3-1-2-2.6-2-1.5 0-2.5.8-2.5 2 0 1.3.8 1.9 2.5 2.1 1.2.2 1.5.4 1.5 1.1 0 .7-.6 1.1-1.4 1.1-1.2 0-1.5-.6-1.5-1.3h-1.3c0 1.3.9 2.3 2.8 2.3Z" fill="#5B616E"/><path fill-rule="evenodd" clip-rule="evenodd" d="M313.6 761.1c1.3 0 2.2-.6 2.4-1.7h-1.2c0 .5-.5.8-1.2.8-.9 0-1.4-.6-1.4-1.6h3.8v-.3c0-1.9-1.2-2.6-2.5-2.6-1.5 0-2.6 1-2.6 2.7 0 1.7 1.1 2.7 2.7 2.7Zm-1.4-3.3c.1-.8.6-1.3 1.3-1.3.8 0 1.2.4 1.3 1.3h-2.6Z" fill="#5B616E"/><path d="m318.9 761.1.8-.1v-1l-.6.1c-.4 0-.6-.2-.6-.7v-2.7h1.1v-1h-1.1v-1h-1.2v1h-.7v1h.7v2.8c0 1 .5 1.6 1.6 1.6Zm3.6 0 .9-.1v-1l-.6.1c-.4 0-.6-.2-.6-.7v-2.7h1.1v-1h-1.1v-1H321v1h-.7v1h.7v2.8c0 1 .5 1.6 1.5 1.6Zm3.3-6.9c0-.4-.3-.7-.7-.7-.4 0-.7.3-.7.7 0 .4.3.7.7.7.4 0 .7-.3.7-.7Zm2.6 2.4v-.8h-1.2v5.2h1.2v-3c0-1 .5-1.3 1.2-1.3s1 .3 1 1.1v3.2h1.3v-3.3c0-1.4-.8-2-1.8-2-.9 0-1.5.4-1.7.9Z" fill="#5B616E"/><path fill-rule="evenodd" clip-rule="evenodd" d="M335.5 763c1.6 0 2.6-.8 2.6-2.4v-4.8H337v.8c-.3-.5-.8-1-1.6-1-1.4 0-2.4 1.2-2.4 2.6v.1c0 1.5 1 2.5 2.3 2.5a2 2 0 0 0 1.7-1v.8c0 1-.5 1.4-1.4 1.4-.8 0-1.2-.3-1.3-.8H333c.1 1 .8 1.7 2.5 1.7v.1Zm0-3.1c-.8 0-1.4-.6-1.4-1.6s.6-1.7 1.5-1.7c.8 0 1.4.6 1.4 1.6s-.6 1.7-1.5 1.7Z" fill="#5B616E"/><path d="M324.5 761h1.2v-5.2h-1.2v5.2Zm16.9.1c1.3 0 2-.6 2-1.7 0-1-.7-1.4-1.9-1.6-.8-.1-1-.3-1-.6 0-.4.2-.7.8-.7.5 0 .8.3.9.7h1.1c-.1-1.1-1-1.5-2-1.5s-2 .5-2 1.5.5 1.4 1.9 1.6c.8.2 1.1.3 1.1.7 0 .5-.3.7-1 .7-.6 0-1-.3-1-.8h-1.1c0 1 .8 1.7 2.2 1.7Zm-14.7-22.6a3.8 3.8 0 1 0-5.4-5.4 3.8 3.8 0 0 0 5.4 5.4Zm2 2.1a3 3 0 0 0-1.7-.6s-1.4 1-3 1-3-1-3-1a3 3 0 0 0-2.7 2l-2.3 6h16l-2.3-6a3 3 0 0 0-1-1.4Z" fill="#5B616E"/><path d="M120.8 732v7.3h7.2c0-4-3.3-7.3-7.3-7.3h.1Z" fill="#0052FF"/><rect x="156" y="16.5" width="39" height="15" rx="7.5" fill="#000"/><rect x="201" y="15" width="18" height="18" rx="9" fill="#000"/></svg>